<svg version="1.1" viewBox="0.0 0.0 448.0 378.87401574803147" fill="none" stroke="none" stroke-linecap="square" stroke-miterlimit="10" xmlns:xlink="http://www.w3.org/1999/xlink" xmlns="http://www.w3.org/2000/svg"><clipPath id="p.0"><path d="m0 0l448.0 0l0 378.87402l-448.0 0l0 -378.87402z" clip-rule="nonzero"/></clipPath><g clip-path="url(#p.0)"><path fill="#000000" fill-opacity="0.0" d="m0 0l448.0 0l0 378.87402l-448.0 0z" fill-rule="evenodd"/><path fill="#dffff5" d="m296.24524 305.1443l0 0c-12.811279 52.645355 -92.44818 78.45773 -177.87402 57.653564q-78.22566 -19.05069 -156.71738 -37.008026q13.505604 -47.77603 25.237064 -95.984116l0 0c12.811267 -52.64534 92.44817 -78.45772 177.87401 -57.653534l0 0c85.42584 20.804169 144.29158 80.34677 131.48033 132.99211z" fill-rule="evenodd"/><path fill="#b9fff8" d="m116.85006 80.54206c41.536736 -44.003025 114.26685 -59.87488 166.76578 -36.39321c52.498962 23.481667 66.99313 78.36711 33.234283 125.849014z" fill-rule="evenodd"/><path fill="#cbfffa" d="m300.9128 12.326912c50.192932 15.012901 81.102295 66.40775 70.87189 117.84293c-10.230438 51.435165 -58.13681 85.49565 -109.84424 78.09708z" fill-rule="evenodd"/><path fill="#dffffc" d="m444.46677 108.66219c-0.44070435 55.534645 -35.82312 108.731544 -83.942505 126.206276c-48.119415 17.474716 -95.107635 -5.809021 -111.47655 -55.239197z" fill-rule="evenodd"/></g></svg>